<?xml version="1.0" standalone="no"?>
<!DOCTYPE svg PUBLIC "-//W3C//DTD SVG 20010904//EN"
 "http://www.w3.org/TR/2001/REC-SVG-20010904/DTD/svg10.dtd">
<svg version="1.0" xmlns="http://www.w3.org/2000/svg"
 width="512.000000pt" height="512.000000pt" viewBox="0 0 512.000000 512.000000"
 preserveAspectRatio="xMidYMid meet">

<g transform="translate(0.000000,512.000000) scale(0.100000,-0.100000)"
fill="#000000" stroke="none">
<path d="M62 4890 c-29 -27 -37 -64 -23 -98 7 -16 45 -62 86 -102 44 -44 75
-83 75 -95 0 -11 -45 -324 -101 -695 -69 -458 -98 -682 -93 -698 5 -12 617
-653 1359 -1423 743 -771 1386 -1439 1430 -1485 74 -77 83 -84 119 -84 35 0
47 8 130 88 50 48 278 268 506 487 228 219 465 447 525 506 l110 108 70 -26
c93 -34 267 -44 365 -19 408 102 614 546 429 922 -120 244 -393 390 -661 354
-94 -13 -204 -53 -269 -96 -24 -17 -49 -33 -55 -37 -7 -4 -451 449 -1128 1152
-614 637 -1124 1162 -1133 1165 -10 4 -344 -14 -743 -40 l-725 -47 -90 92
c-80 81 -95 91 -126 91 -22 0 -44 -8 -57 -20z m1696 -271 c2 -10 -235 -245
-655 -650 -362 -348 -698 -671 -746 -718 l-88 -85 -45 45 -46 46 88 589 c48
324 89 591 91 594 2 2 31 -23 65 -57 l61 -61 -13 -46 c-25 -90 -1 -186 64
-254 53 -57 101 -77 186 -77 57 0 84 5 115 22 196 105 191 374 -10 469 -55 26
-131 31 -185 13 -32 -11 -33 -11 -85 47 -29 33 -50 62 -47 65 4 3 140 14 302
24 162 10 410 26 550 35 313 22 394 21 398 -1z m1144 -1185 c552 -572 1009
-1048 1017 -1057 12 -15 9 -26 -23 -87 -127 -240 -91 -539 89 -737 l53 -58
-262 -252 -261 -252 -575 -1 -575 0 -987 1025 -986 1025 136 133 c110 107
1046 1009 1297 1249 33 32 63 57 67 55 4 -1 459 -470 1010 -1043z m-2143 841
c66 -33 52 -132 -21 -158 -52 -18 -116 46 -103 103 13 58 70 84 124 55z m3820
-1826 c159 -36 304 -176 346 -333 13 -47 16 -89 13 -158 -3 -83 -8 -103 -41
-171 -182 -385 -728 -361 -876 37 -113 304 116 635 439 635 41 1 95 -4 119
-10z m-1454 -1834 c-110 -107 -202 -194 -205 -194 -3 -1 -90 87 -194 194
l-188 195 394 0 393 0 -200 -195z"/>
<path d="M1482 3850 c-64 -60 -188 -178 -275 -262 -150 -146 -157 -155 -157
-192 0 -35 8 -47 88 -128 97 -100 140 -127 217 -135 126 -13 248 77 274 202 6
26 14 31 70 48 157 46 233 216 161 362 -11 22 -57 79 -103 128 -75 79 -86 87
-120 87 -34 0 -49 -10 -155 -110z m192 -140 c58 -64 45 -138 -27 -163 -25 -9
-77 15 -112 52 l-29 31 59 60 c33 33 62 60 66 60 4 0 23 -18 43 -40z m-250
-240 c44 -49 50 -104 14 -137 -49 -44 -93 -36 -153 26 l-29 31 59 60 c33 33
62 60 66 60 4 0 23 -18 43 -40z"/>
<path d="M2025 3521 c-25 -11 -541 -505 -549 -527 -22 -58 16 -124 73 -124 34
0 64 23 178 134 105 102 110 88 39 -116 -31 -90 -56 -174 -56 -188 1 -29 16
-52 47 -68 68 -37 105 3 167 179 l47 136 40 -7 c92 -17 201 30 250 108 85 134
59 248 -89 395 -77 76 -110 93 -147 78z m70 -251 c50 -51 54 -100 11 -136 -43
-37 -82 -32 -133 18 l-43 42 57 58 c32 32 60 58 63 58 3 0 24 -18 45 -40z"/>
<path d="M2276 2746 c-224 -98 -355 -160 -367 -175 -26 -31 -24 -74 4 -106 30
-35 73 -35 151 -1 l60 27 44 -43 c24 -24 66 -68 93 -99 l49 -57 -30 -63 c-37
-80 -38 -103 -1 -140 34 -34 78 -38 110 -11 29 24 351 705 351 743 0 42 -39
79 -82 78 -19 0 -181 -65 -382 -153z m158 -195 c-20 -45 -40 -81 -43 -81 -11
0 -95 89 -90 94 8 8 164 74 167 71 2 -2 -13 -39 -34 -84z"/>
<path d="M2988 2522 c-9 -4 -136 -121 -282 -261 -178 -171 -267 -263 -271
-281 -13 -60 46 -120 103 -105 15 4 81 59 147 123 197 192 183 204 109 -90
-35 -139 -64 -261 -64 -271 0 -30 54 -77 90 -77 33 0 23 -9 476 425 99 95 104
102 104 141 0 53 -31 84 -84 84 -34 0 -48 -11 -183 -140 -80 -78 -147 -139
-150 -137 -2 3 23 112 56 244 34 132 61 253 61 269 0 50 -66 95 -112 76z"/>
<path d="M3468 2017 c-33 -15 -528 -489 -546 -524 -22 -41 -6 -76 73 -152 49
-48 95 -82 141 -104 65 -30 76 -32 180 -32 107 0 112 1 186 38 215 106 304
354 205 570 -22 48 -130 181 -161 198 -27 15 -53 17 -78 6z m59 -242 c70 -108
49 -244 -51 -332 -92 -81 -224 -86 -328 -12 l-30 22 183 178 c101 98 189 178
194 178 6 1 20 -15 32 -34z"/>
<path d="M4380 2263 l0 -67 -48 47 -48 47 -59 -60 -59 -60 42 -43 c23 -23 42
-46 42 -50 0 -4 -29 -7 -65 -7 l-65 0 0 -85 0 -85 67 0 68 0 -48 -47 -47 -48
62 -62 62 -63 48 47 48 47 0 -67 0 -67 85 0 85 0 0 65 c0 36 3 65 7 65 4 0 28
-20 53 -45 l46 -45 59 60 59 60 -49 50 -49 50 67 0 67 0 0 85 0 85 -67 0 -67
0 49 50 50 50 -63 62 -62 63 -50 -50 -50 -49 0 67 0 67 -85 0 -85 0 0 -67z"/>
</g>
</svg>
