<?xml version="1.0" standalone="no"?>
<!DOCTYPE svg PUBLIC "-//W3C//DTD SVG 20010904//EN"
 "http://www.w3.org/TR/2001/REC-SVG-20010904/DTD/svg10.dtd">
<svg version="1.0" xmlns="http://www.w3.org/2000/svg"
 width="512.000000pt" height="512.000000pt" viewBox="0 0 512.000000 512.000000"
 preserveAspectRatio="xMidYMid meet">

<g transform="translate(0.000000,512.000000) scale(0.100000,-0.100000)"
fill="#000000" stroke="none">
<path d="M329 5036 c-103 -27 -174 -91 -210 -187 -18 -47 -19 -100 -19 -1087
0 -1167 -5 -1091 76 -1181 25 -27 66 -60 92 -73 l47 -23 617 -5 618 -5 -281
-365 c-155 -201 -293 -389 -306 -419 -22 -47 -25 -63 -21 -135 5 -94 28 -144
95 -207 72 -68 1588 -1224 1637 -1249 39 -19 65 -24 120 -24 91 0 157 29 218
92 77 80 1959 2543 1984 2597 16 32 24 69 24 103 0 66 -203 1163 -231 1246
-73 218 -250 345 -485 349 l-86 2 -220 245 c-121 135 -239 259 -262 276 -88
68 21 64 -1755 63 -1239 0 -1616 -3 -1652 -13z m3273 -156 c30 -9 70 -48 223
-218 184 -204 186 -207 158 -214 -15 -4 -215 -21 -443 -38 -228 -17 -438 -37
-466 -45 -27 -8 -68 -27 -90 -43 -26 -19 -270 -329 -674 -856 l-634 -826 -659
0 c-644 0 -660 0 -692 20 -69 42 -65 -22 -65 1105 0 1110 -3 1050 57 1093 16
11 37 22 48 25 41 10 3199 7 3237 -3z m838 -603 c75 -27 159 -112 189 -192 12
-32 59 -259 105 -504 135 -718 131 -696 120 -736 -6 -23 -334 -459 -987 -1309
-932 -1216 -979 -1275 -1023 -1292 -37 -14 -51 -15 -82 -6 -45 14 -1607 1208
-1640 1254 -32 45 -30 113 4 164 44 65 1895 2477 1927 2511 16 17 41 36 56 42
14 6 262 28 551 50 289 23 543 42 565 44 69 6 158 -5 215 -26z"/>
<path d="M864 4444 c-60 -21 -119 -77 -151 -142 -37 -75 -39 -173 -4 -244 46
-96 159 -168 261 -168 106 0 217 73 260 172 83 189 -54 400 -259 397 -36 0
-85 -7 -107 -15z m185 -170 c45 -37 57 -92 33 -147 -44 -100 -187 -100 -229 0
-20 50 -9 99 32 140 29 29 40 33 83 33 40 0 57 -6 81 -26z"/>
<path d="M1702 4423 c-11 -10 -217 -292 -458 -628 -310 -432 -439 -619 -442
-642 -8 -60 73 -107 121 -70 9 6 216 291 461 632 355 494 446 626 446 651 0
61 -81 97 -128 57z"/>
<path d="M1550 3609 c-191 -86 -231 -340 -75 -477 110 -97 280 -93 385 9 61
59 85 118 85 209 0 65 -4 82 -30 129 -36 65 -92 115 -153 135 -64 22 -157 20
-212 -5z m184 -160 c56 -44 70 -110 36 -166 -45 -74 -139 -83 -197 -19 -38 41
-44 95 -18 146 31 59 127 80 179 39z"/>
<path d="M4058 4007 c-129 -37 -211 -143 -211 -277 0 -263 321 -384 498 -188
99 110 99 266 0 376 -73 81 -187 117 -287 89z m160 -191 c116 -114 -48 -287
-169 -178 -50 45 -55 126 -12 174 49 56 127 57 181 4z"/>
<path d="M3112 3247 c-27 -28 -29 -77 -4 -105 26 -30 709 -550 732 -557 11 -3
32 0 47 7 29 14 300 359 309 394 8 32 -22 83 -53 90 -50 13 -75 -8 -185 -151
-59 -77 -111 -141 -115 -142 -5 -2 -152 107 -327 242 -345 265 -357 272 -404
222z"/>
<path d="M2810 2827 c-35 -18 -53 -58 -40 -92 12 -32 526 -775 548 -792 26
-21 76 -16 100 10 37 39 29 74 -43 178 -36 52 -63 100 -60 107 3 7 39 57 81
112 l76 98 96 -35 c127 -47 150 -50 185 -23 21 17 27 30 27 59 0 63 46 43
-653 292 -153 54 -281 99 -285 99 -4 0 -18 -6 -32 -13z m380 -278 c63 -23 117
-43 119 -45 5 -4 -89 -124 -98 -124 -6 0 -118 152 -145 198 -11 18 -1 16 124
-29z"/>
<path d="M2483 2417 c-12 -7 -85 -95 -162 -196 -144 -188 -158 -215 -128 -254
6 -9 174 -140 372 -292 375 -287 390 -295 433 -257 11 9 81 97 156 195 141
186 152 209 121 254 -19 27 -61 37 -94 23 -15 -6 -73 -73 -136 -155 l-109
-143 -106 80 c-58 45 -107 83 -109 84 -2 2 31 49 73 104 44 58 76 111 76 124
0 13 -10 35 -21 50 -18 23 -28 27 -62 24 -39 -3 -46 -9 -105 -83 -35 -43 -70
-88 -77 -98 -13 -18 -20 -15 -124 64 -68 51 -107 87 -102 94 150 189 221 291
221 314 -1 30 -16 53 -47 69 -27 15 -42 15 -70 -1z"/>
<path d="M2050 1764 c-81 -22 -123 -56 -216 -177 -94 -123 -104 -155 -60 -196
14 -13 179 -142 368 -287 364 -280 378 -288 426 -246 32 27 162 202 179 242
10 21 16 65 17 110 1 84 -23 152 -72 203 -47 50 -401 318 -445 337 -61 27
-132 32 -197 14z m132 -158 c59 -31 404 -305 416 -330 25 -54 15 -99 -34 -167
-26 -35 -50 -68 -54 -72 -4 -5 -134 89 -289 208 l-282 217 49 61 c69 89 131
116 194 83z"/>
</g>
</svg>
