<?xml version="1.0" standalone="no"?>
<!DOCTYPE svg PUBLIC "-//W3C//DTD SVG 20010904//EN"
 "http://www.w3.org/TR/2001/REC-SVG-20010904/DTD/svg10.dtd">
<svg version="1.0" xmlns="http://www.w3.org/2000/svg"
 width="512.000000pt" height="512.000000pt" viewBox="0 0 512.000000 512.000000"
 preserveAspectRatio="xMidYMid meet">

<g transform="translate(0.000000,512.000000) scale(0.100000,-0.100000)"
fill="#000000" stroke="none">
<path d="M0 4970 l0 -150 350 0 350 0 4 -22 c3 -13 73 -707 156 -1543 83 -836
153 -1538 156 -1561 l6 -41 -57 -28 c-121 -59 -225 -187 -260 -320 -69 -266
104 -547 373 -604 29 -6 116 -11 192 -11 77 0 140 -3 140 -7 0 -5 -7 -30 -15
-57 -22 -71 -19 -200 5 -278 76 -247 339 -396 585 -333 225 58 375 248 375
474 0 42 -7 103 -15 134 -8 32 -15 60 -15 62 0 3 183 5 406 5 383 0 406 -1
399 -17 -4 -10 -14 -43 -21 -73 -39 -157 9 -322 128 -446 196 -205 515 -204
708 2 89 96 140 221 140 342 0 44 -18 136 -35 175 -7 16 6 17 179 17 l186 0 0
150 0 150 -1642 0 -1643 0 -39 23 c-63 35 -99 88 -104 150 -8 99 49 180 143
206 28 8 520 11 1663 11 1469 0 1622 1 1622 16 0 8 34 352 75 764 41 412 75
755 75 763 0 9 29 36 65 62 461 329 615 966 358 1480 -328 656 -1168 858
-1756 422 -140 -104 -254 -234 -344 -394 l-35 -63 -909 0 -909 0 -1 28 c0 15
-15 169 -32 342 l-32 315 -488 3 -487 2 0 -150z m4070 -160 c416 -66 726 -413
747 -835 22 -461 -328 -867 -787 -913 -372 -38 -723 157 -885 491 -162 336
-101 722 158 994 196 206 489 306 767 263z m-1306 -737 c-3 -32 -7 -73 -9 -91
-2 -19 0 -82 5 -141 37 -422 283 -780 664 -966 233 -115 525 -149 771 -91 33
8 60 14 61 13 1 -1 -23 -253 -54 -559 l-56 -558 -1412 0 -1413 0 -5 33 c-3 17
-58 556 -121 1197 -63 641 -117 1177 -120 1193 l-4 27 849 0 849 0 -5 -57z
m-819 -3402 c76 -35 115 -95 115 -177 0 -59 -19 -103 -63 -141 -128 -112 -317
-29 -317 140 0 64 14 98 57 139 60 57 137 72 208 39z m1755 -15 c127 -84 113
-275 -25 -337 -164 -75 -332 96 -254 258 22 46 70 89 116 103 45 15 122 3 163
-24z"/>
<path d="M4068 4093 l-228 -228 -133 133 -132 132 -103 -103 c-56 -56 -102
-107 -102 -112 0 -6 105 -115 233 -243 l232 -232 338 338 337 337 -103 103
c-56 56 -105 102 -107 102 -3 0 -107 -102 -232 -227z"/>
<path d="M1897 2363 c-4 -3 -7 -71 -7 -150 l0 -143 150 0 150 0 0 150 0 150
-143 0 c-79 0 -147 -3 -150 -7z"/>
<path d="M2587 2363 c-4 -3 -7 -71 -7 -150 l0 -143 150 0 150 0 0 150 0 150
-143 0 c-79 0 -147 -3 -150 -7z"/>
<path d="M3277 2363 c-4 -3 -7 -71 -7 -150 l0 -143 150 0 150 0 0 150 0 150
-143 0 c-79 0 -147 -3 -150 -7z"/>
</g>
</svg>
